<?xml version="1.0" encoding="utf-8"?>
<!-- Generator: Adobe Illustrator 27.0.1, SVG Export Plug-In . SVG Version: 6.00 Build 0)  -->
<svg version="1.1" id="Layer_1" xmlns="http://www.w3.org/2000/svg" xmlns:xlink="http://www.w3.org/1999/xlink" x="0px" y="0px"
	 viewBox="0 0 308.5 126" style="enable-background:new 0 0 308.5 126;" xml:space="preserve">
<style type="text/css">
	.st0{fill:#D47AE8;}
	.st1{fill:#F2F2F2;}
</style>
<polygon class="st0" points="269.3,81.2 12.3,81.2 5,75.1 12.3,69.7 269.3,69.7 "/>
<path class="st1" d="M133.7,65c0,16.4-4.3,29.2-13,38.3S99.8,116.9,84,116.9s-28.4-4.5-37-13.5S34.1,81.5,34.1,64.9
	s4.3-29.4,13-38.3s21-13.4,37-13.4s28,4.5,36.6,13.6C129.4,35.8,133.7,48.6,133.7,65z M52.6,65c0,12.4,2.6,21.8,7.9,28.2
	c5.3,6.4,13.1,9.6,23.5,9.6s18.1-3.2,23.4-9.5c5.3-6.3,7.9-15.8,7.9-28.3s-2.6-21.7-7.8-28.1c-5.2-6.4-13-9.6-23.3-9.6
	s-18.3,3.2-23.6,9.6C55.2,43.3,52.6,52.7,52.6,65L52.6,65z"/>
<path class="st1" d="M198.5,115.5h-61v-10l40.6-53.8H140V39.3h57.3v11.3l-39.8,52.5h40.9L198.5,115.5L198.5,115.5z"/>
<path class="st1" d="M242.1,116.9c-12.5,0-22.3-3.5-29.3-10.4c-7.1-6.9-10.6-16.4-10.6-28.6s3.3-22.2,9.8-29.4
	c6.5-7.1,15.5-10.7,27-10.7c10.6,0,19,3.1,25.2,9.2c6.1,6.1,9.2,14.5,9.2,25.2v8.7h-53.6c0.2,7.4,2.3,13.1,6.3,17.1
	c4,4,9.6,6,16.8,6c4.8,0,9.2-0.4,13.3-1.3c4.1-0.8,8.5-2.3,13.2-4.2v13.2c-4.2,1.9-8.4,3.2-12.7,4
	C252.5,116.5,247.6,116.9,242.1,116.9L242.1,116.9z M239,50.2c-5.4,0-9.8,1.6-13.1,4.9c-3.3,3.3-5.2,8-5.9,14.3h36.5
	c-0.1-6.3-1.7-11.1-4.8-14.3C248.7,51.8,244.4,50.2,239,50.2L239,50.2z"/>
<path class="st1" d="M282.8,19.1c0-2.9,0.8-5.1,2.5-6.7c1.7-1.6,4.1-2.3,7.2-2.3s5.3,0.8,7,2.3c1.7,1.6,2.5,3.8,2.5,6.7
	c0,2.9-0.8,4.9-2.5,6.5c-1.7,1.6-4,2.4-7,2.4s-5.5-0.8-7.2-2.4C283.6,24,282.8,21.9,282.8,19.1z M300.9,115.5h-17.1V39.3h17.1
	C300.9,39.3,300.9,115.5,300.9,115.5z"/>
</svg>
