<?xml version="1.0" encoding="utf-8"?>
<!-- Generator: Adobe Illustrator 27.0.1, SVG Export Plug-In . SVG Version: 6.00 Build 0)  -->
<svg version="1.1" id="Layer_1" xmlns="http://www.w3.org/2000/svg" xmlns:xlink="http://www.w3.org/1999/xlink" x="0px" y="0px"
	 viewBox="0 0 615 355.1" style="enable-background:new 0 0 615 355.1;" xml:space="preserve">
<style type="text/css">
	.st0{fill:#D47AE8;}
	.st1{enable-background:new    ;}
	.st2{fill:#FFFFFF;}
</style>
<g>
	<polygon class="st0" points="354.9,262.7 587.3,262.7 598,283.2 587.3,301.2 354.9,301.2 	"/>
</g>
<g class="st1">
	<path d="M172.8,159.2c0,27.6-6.9,49-20.7,64.3c-13.8,15.3-33.3,23-58.6,23c-25.6,0-45.2-7.6-58.9-22.8C20.9,208.5,14,187,14,159
		c0-28,6.9-49.5,20.7-64.5C48.5,79.5,68.2,72,93.8,72c25.2,0,44.7,7.6,58.4,22.8C166,110.1,172.8,131.6,172.8,159.2z M43.5,159.2
		c0,20.9,4.2,36.7,12.6,47.5c8.4,10.8,20.9,16.2,37.4,16.2c16.5,0,28.9-5.3,37.3-16c8.4-10.7,12.6-26.5,12.6-47.6
		c0-20.8-4.2-36.6-12.5-47.3c-8.3-10.7-20.7-16.1-37.2-16.1c-16.6,0-29.2,5.4-37.6,16.1C47.7,122.7,43.5,138.4,43.5,159.2z"/>
	<path d="M308.2,179.9c0,20.9-5.4,37.3-16.1,49c-10.7,11.7-25.7,17.6-44.9,17.6c-12,0-22.6-2.7-31.8-8.1
		c-9.2-5.4-16.3-13.2-21.2-23.3c-4.9-10.1-7.4-21.9-7.4-35.2c0-20.8,5.3-37,16-48.7c10.7-11.7,25.7-17.5,45.1-17.5
		c18.5,0,33.2,6,44,17.9C302.8,143.5,308.2,159.6,308.2,179.9z M214.9,179.9c0,29.6,10.9,44.4,32.8,44.4c21.6,0,32.5-14.8,32.5-44.4
		c0-29.3-10.9-43.9-32.7-43.9c-11.4,0-19.7,3.8-24.9,11.4C217.4,154.9,214.9,165.7,214.9,179.9z"/>
	<path d="M392.6,246.5c-16.2,0-28.8-5.8-37.8-17.5h-1.6c1.1,10.8,1.6,17.4,1.6,19.7v52.5h-27.2V116h22c0.6,2.4,1.9,8.1,3.8,17.2h1.4
		c8.5-13,21.3-19.5,38.3-19.5c16,0,28.5,5.8,37.4,17.4s13.4,27.9,13.4,48.8c0,20.9-4.5,37.3-13.6,49
		C421.2,240.6,408.6,246.5,392.6,246.5z M386,135.9c-10.8,0-18.7,3.2-23.7,9.5c-5,6.3-7.5,16.5-7.5,30.4v4.1
		c0,15.6,2.5,26.9,7.4,33.9c4.9,7,13,10.5,24.2,10.5c9.4,0,16.7-3.9,21.8-11.6c5.1-7.7,7.7-18.7,7.7-33c0-14.4-2.5-25.2-7.6-32.6
		C403.3,139.6,395.8,135.9,386,135.9z"/>
	<path d="M549.8,207.7c0,12.5-4.6,22.1-13.7,28.8c-9.1,6.7-22.2,10-39.2,10c-17.1,0-30.8-2.6-41.2-7.8v-23.5
		c15.1,7,29.1,10.4,42.1,10.4c16.8,0,25.2-5.1,25.2-15.2c0-3.2-0.9-6-2.8-8.1c-1.9-2.2-4.9-4.4-9.2-6.7c-4.3-2.3-10.2-4.9-17.7-7.9
		c-14.8-5.7-24.7-11.4-30-17.2c-5.2-5.7-7.8-13.1-7.8-22.3c0-11,4.4-19.5,13.3-25.6c8.8-6.1,20.9-9.1,36.1-9.1
		c15.1,0,29.3,3.1,42.8,9.2l-8.8,20.5c-13.8-5.7-25.5-8.6-34.9-8.6c-14.4,0-21.6,4.1-21.6,12.3c0,4,1.9,7.4,5.6,10.2
		c3.7,2.8,11.9,6.6,24.5,11.5c10.6,4.1,18.3,7.8,23.1,11.2c4.8,3.4,8.3,7.3,10.7,11.8C548.6,196.2,549.8,201.5,549.8,207.7z"/>
	<path d="M563.3,229.7c0-5.7,1.5-10.1,4.5-13c3-3,7.3-4.5,12.9-4.5c5.5,0,9.7,1.5,12.6,4.6c2.9,3.1,4.4,7.4,4.4,12.9
		c0,5.5-1.5,9.8-4.5,13c-3,3.2-7.2,4.8-12.6,4.8c-5.5,0-9.8-1.5-12.8-4.6C564.8,239.8,563.3,235.4,563.3,229.7z M590.9,192.7h-20.2
		l-6-118h32.1L590.9,192.7z"/>
</g>
<g class="st1">
	<path class="st2" d="M378.4,284.6c0,1.3-0.5,2.2-1.4,2.9s-2.2,1-4,1c-1.7,0-3.1-0.3-4.2-0.8v-2.4c1.5,0.7,2.9,1.1,4.3,1.1
		c1.7,0,2.5-0.5,2.5-1.5c0-0.3-0.1-0.6-0.3-0.8s-0.5-0.4-0.9-0.7c-0.4-0.2-1-0.5-1.8-0.8c-1.5-0.6-2.5-1.2-3-1.7
		c-0.5-0.6-0.8-1.3-0.8-2.2c0-1.1,0.4-2,1.3-2.6c0.9-0.6,2.1-0.9,3.7-0.9c1.5,0,3,0.3,4.3,0.9l-0.9,2.1c-1.4-0.6-2.6-0.9-3.5-0.9
		c-1.5,0-2.2,0.4-2.2,1.2c0,0.4,0.2,0.8,0.6,1s1.2,0.7,2.5,1.2c1.1,0.4,1.8,0.8,2.3,1.1c0.5,0.3,0.8,0.7,1.1,1.2
		S378.4,284,378.4,284.6z"/>
	<path class="st2" d="M392.8,281.8c0,2.1-0.5,3.8-1.6,5c-1.1,1.2-2.6,1.8-4.5,1.8c-1.2,0-2.3-0.3-3.2-0.8s-1.6-1.3-2.1-2.4
		c-0.5-1-0.8-2.2-0.8-3.6c0-2.1,0.5-3.7,1.6-4.9c1.1-1.2,2.6-1.8,4.6-1.8c1.9,0,3.4,0.6,4.5,1.8
		C392.3,278.1,392.8,279.8,392.8,281.8z M383.4,281.8c0,3,1.1,4.5,3.3,4.5c2.2,0,3.3-1.5,3.3-4.5c0-3-1.1-4.4-3.3-4.4
		c-1.2,0-2,0.4-2.5,1.1S383.4,280.4,383.4,281.8z"/>
	<path class="st2" d="M406.9,288.3h-2.8v-8c0-1-0.2-1.7-0.6-2.2s-1-0.7-1.8-0.7c-1.1,0-1.8,0.3-2.3,1s-0.7,1.8-0.7,3.5v6.5H396v-13
		h2.2l0.4,1.7h0.1c0.4-0.6,0.9-1.1,1.6-1.4c0.7-0.3,1.4-0.5,2.3-0.5c2,0,3.3,0.7,4,2h0.2c0.4-0.6,0.9-1.1,1.6-1.5s1.5-0.5,2.4-0.5
		c1.5,0,2.7,0.4,3.4,1.2c0.7,0.8,1.1,2,1.1,3.6v8.4h-2.8v-8c0-1-0.2-1.7-0.6-2.2s-1-0.7-1.8-0.7c-1.1,0-1.9,0.3-2.3,1
		s-0.7,1.7-0.7,3.1V288.3z"/>
	<path class="st2" d="M424.6,288.6c-2,0-3.6-0.6-4.7-1.8c-1.1-1.2-1.7-2.8-1.7-4.9c0-2.1,0.5-3.8,1.6-5c1.1-1.2,2.5-1.8,4.3-1.8
		c1.7,0,3.1,0.5,4.1,1.6c1,1,1.5,2.5,1.5,4.3v1.5H421c0,1.3,0.4,2.2,1,2.9s1.5,1,2.7,1c0.8,0,1.5-0.1,2.1-0.2
		c0.7-0.1,1.4-0.4,2.1-0.7v2.2c-0.7,0.3-1.4,0.5-2,0.7S425.5,288.6,424.6,288.6z M424.1,277.2c-0.9,0-1.6,0.3-2.1,0.8
		s-0.8,1.4-0.9,2.4h5.9c0-1.1-0.3-1.9-0.8-2.4S425,277.2,424.1,277.2z"/>
	<path class="st2" d="M437.6,286.3c0.7,0,1.3-0.1,2-0.3v2.1c-0.3,0.1-0.7,0.2-1.2,0.3s-1,0.1-1.5,0.1c-2.6,0-3.9-1.4-3.9-4.1v-7
		h-1.8v-1.2l1.9-1l0.9-2.7h1.7v2.9h3.7v2.1h-3.7v6.9c0,0.7,0.2,1.2,0.5,1.5C436.6,286.2,437.1,286.3,437.6,286.3z"/>
	<path class="st2" d="M453.6,288.3h-2.8v-8c0-1-0.2-1.7-0.6-2.2s-1-0.7-1.9-0.7c-1.2,0-2,0.3-2.5,1s-0.8,1.8-0.8,3.5v6.4h-2.8v-18.2
		h2.8v4.6c0,0.7,0,1.5-0.1,2.4h0.2c0.4-0.6,0.9-1.1,1.6-1.5s1.4-0.5,2.3-0.5c3.1,0,4.7,1.6,4.7,4.7V288.3z"/>
	<path class="st2" d="M457.3,271.9c0-0.5,0.1-0.9,0.4-1.1c0.3-0.3,0.7-0.4,1.2-0.4c0.5,0,0.9,0.1,1.1,0.4s0.4,0.6,0.4,1.1
		c0,0.5-0.1,0.8-0.4,1.1s-0.6,0.4-1.1,0.4c-0.5,0-0.9-0.1-1.2-0.4C457.4,272.8,457.3,272.4,457.3,271.9z M460.2,288.3h-2.8v-13h2.8
		V288.3z"/>
	<path class="st2" d="M475.5,288.3h-2.8v-8c0-1-0.2-1.7-0.6-2.2s-1-0.7-1.9-0.7c-1.2,0-2,0.3-2.6,1s-0.8,1.8-0.8,3.5v6.5h-2.8v-13
		h2.2l0.4,1.7h0.1c0.4-0.6,0.9-1.1,1.7-1.4c0.7-0.3,1.5-0.5,2.4-0.5c3.1,0,4.7,1.6,4.7,4.7V288.3z"/>
	<path class="st2" d="M490.3,275.4v1.5l-2.2,0.4c0.2,0.3,0.4,0.6,0.5,1s0.2,0.8,0.2,1.3c0,1.3-0.5,2.4-1.4,3.2s-2.2,1.1-3.8,1.1
		c-0.4,0-0.8,0-1.1-0.1c-0.6,0.4-0.9,0.8-0.9,1.3c0,0.3,0.1,0.5,0.4,0.7s0.8,0.2,1.5,0.2h2.3c1.4,0,2.5,0.3,3.3,0.9
		c0.7,0.6,1.1,1.5,1.1,2.6c0,1.5-0.6,2.6-1.8,3.4c-1.2,0.8-3,1.2-5.2,1.2c-1.8,0-3.1-0.3-4-0.9c-0.9-0.6-1.4-1.5-1.4-2.7
		c0-0.8,0.3-1.5,0.8-2s1.2-0.9,2.1-1.1c-0.4-0.2-0.7-0.4-0.9-0.8c-0.2-0.3-0.4-0.7-0.4-1.1c0-0.5,0.1-0.9,0.4-1.2
		c0.3-0.3,0.7-0.7,1.2-1c-0.7-0.3-1.2-0.8-1.6-1.4c-0.4-0.7-0.6-1.4-0.6-2.3c0-1.4,0.4-2.5,1.3-3.3c0.9-0.8,2.2-1.2,3.8-1.2
		c0.4,0,0.8,0,1.2,0.1s0.7,0.1,0.9,0.2H490.3z M480.1,290.3c0,0.6,0.3,1,0.8,1.4s1.3,0.5,2.3,0.5c1.5,0,2.6-0.2,3.4-0.6
		s1.1-1,1.1-1.7c0-0.6-0.2-1-0.6-1.2s-1.2-0.4-2.2-0.4h-2.1c-0.8,0-1.4,0.2-1.9,0.6S480.1,289.7,480.1,290.3z M481.3,279.6
		c0,0.8,0.2,1.4,0.6,1.9c0.4,0.4,1,0.7,1.8,0.7c1.6,0,2.4-0.9,2.4-2.6c0-0.8-0.2-1.5-0.6-2s-1-0.7-1.8-0.7c-0.8,0-1.4,0.2-1.8,0.7
		C481.5,278,481.3,278.7,481.3,279.6z"/>
	<path class="st2" d="M509.6,288.3l-1.7-6c-0.2-0.6-0.6-2.1-1.1-4.5h-0.1c-0.5,2.1-0.8,3.6-1.1,4.5l-1.7,6h-3l-3.6-13h2.8l1.7,6.4
		c0.4,1.6,0.6,2.9,0.8,4.1h0.1c0.1-0.6,0.2-1.2,0.4-2s0.3-1.3,0.4-1.7l2-6.8h3l1.9,6.8c0.1,0.4,0.3,1,0.4,1.8s0.3,1.4,0.3,1.8h0.1
		c0.1-1,0.4-2.3,0.8-4l1.7-6.4h2.8l-3.7,13H509.6z"/>
	<path class="st2" d="M525.1,275.1c0.6,0,1,0,1.4,0.1l-0.3,2.6c-0.4-0.1-0.8-0.1-1.2-0.1c-1.1,0-2,0.4-2.7,1.1s-1,1.7-1,2.8v6.8
		h-2.8v-13h2.2l0.4,2.3h0.1c0.4-0.8,1-1.4,1.7-1.8S524.3,275.1,525.1,275.1z"/>
	<path class="st2" d="M540.4,281.8c0,2.1-0.5,3.8-1.6,5c-1.1,1.2-2.6,1.8-4.5,1.8c-1.2,0-2.3-0.3-3.2-0.8s-1.6-1.3-2.1-2.4
		c-0.5-1-0.8-2.2-0.8-3.6c0-2.1,0.5-3.7,1.6-4.9c1.1-1.2,2.6-1.8,4.6-1.8c1.9,0,3.4,0.6,4.5,1.8
		C539.8,278.1,540.4,279.8,540.4,281.8z M530.9,281.8c0,3,1.1,4.5,3.3,4.5c2.2,0,3.3-1.5,3.3-4.5c0-3-1.1-4.4-3.3-4.4
		c-1.2,0-2,0.4-2.5,1.1S530.9,280.4,530.9,281.8z"/>
	<path class="st2" d="M554.9,288.3h-2.8v-8c0-1-0.2-1.7-0.6-2.2s-1-0.7-1.9-0.7c-1.2,0-2,0.3-2.6,1s-0.8,1.8-0.8,3.5v6.5h-2.8v-13
		h2.2l0.4,1.7h0.1c0.4-0.6,0.9-1.1,1.7-1.4c0.7-0.3,1.5-0.5,2.4-0.5c3.1,0,4.7,1.6,4.7,4.7V288.3z"/>
	<path class="st2" d="M569.7,275.4v1.5l-2.2,0.4c0.2,0.3,0.4,0.6,0.5,1s0.2,0.8,0.2,1.3c0,1.3-0.5,2.4-1.4,3.2s-2.2,1.1-3.8,1.1
		c-0.4,0-0.8,0-1.1-0.1c-0.6,0.4-0.9,0.8-0.9,1.3c0,0.3,0.1,0.5,0.4,0.7s0.8,0.2,1.5,0.2h2.3c1.4,0,2.5,0.3,3.3,0.9
		c0.7,0.6,1.1,1.5,1.1,2.6c0,1.5-0.6,2.6-1.8,3.4c-1.2,0.8-3,1.2-5.2,1.2c-1.8,0-3.1-0.3-4-0.9c-0.9-0.6-1.4-1.5-1.4-2.7
		c0-0.8,0.3-1.5,0.8-2s1.2-0.9,2.1-1.1c-0.4-0.2-0.7-0.4-0.9-0.8c-0.2-0.3-0.4-0.7-0.4-1.1c0-0.5,0.1-0.9,0.4-1.2
		c0.3-0.3,0.7-0.7,1.2-1c-0.7-0.3-1.2-0.8-1.6-1.4c-0.4-0.7-0.6-1.4-0.6-2.3c0-1.4,0.4-2.5,1.3-3.3c0.9-0.8,2.2-1.2,3.8-1.2
		c0.4,0,0.8,0,1.2,0.1s0.7,0.1,0.9,0.2H569.7z M559.5,290.3c0,0.6,0.3,1,0.8,1.4s1.3,0.5,2.3,0.5c1.5,0,2.6-0.2,3.4-0.6
		s1.1-1,1.1-1.7c0-0.6-0.2-1-0.6-1.2s-1.2-0.4-2.2-0.4h-2.1c-0.8,0-1.4,0.2-1.9,0.6S559.5,289.7,559.5,290.3z M560.7,279.6
		c0,0.8,0.2,1.4,0.6,1.9c0.4,0.4,1,0.7,1.8,0.7c1.6,0,2.4-0.9,2.4-2.6c0-0.8-0.2-1.5-0.6-2s-1-0.7-1.8-0.7c-0.8,0-1.4,0.2-1.8,0.7
		C560.9,278,560.7,278.7,560.7,279.6z"/>
</g>
<g class="st1">
	<path class="st0" d="M64.7,157.4c3.6,0,6.4,0.9,8.5,2.8c2.1,1.9,3.1,4.5,3.1,7.7c0,3.8-1.2,6.7-3.6,8.9c-2.4,2.1-5.7,3.2-10.1,3.2
		c-4,0-7.1-0.6-9.3-1.9V173c1.3,0.7,2.8,1.3,4.5,1.7c1.7,0.4,3.3,0.6,4.7,0.6c2.6,0,4.5-0.6,5.9-1.7c1.3-1.1,2-2.8,2-5.1
		c0-4.2-2.7-6.4-8.1-6.4c-0.8,0-1.7,0.1-2.8,0.2c-1.1,0.2-2.1,0.3-2.9,0.5l-2.5-1.5l1.4-17.3h18.4v5.1H60.5l-0.8,8.8
		c0.6-0.1,1.3-0.2,2.1-0.3C62.6,157.5,63.6,157.4,64.7,157.4z"/>
	<path class="st0" d="M105.1,161.9c0,6.2-1,10.7-3,13.7c-2,3-5,4.5-9.1,4.5c-3.9,0-6.9-1.5-9-4.6c-2-3.1-3.1-7.6-3.1-13.6
		c0-6.3,1-10.9,3-13.8c2-3,5-4.5,9.1-4.5c4,0,7,1.6,9,4.7C104.1,151.3,105.1,155.9,105.1,161.9z M86.8,161.9c0,4.8,0.5,8.3,1.5,10.4
		c1,2.1,2.6,3.1,4.8,3.1c2.2,0,3.8-1.1,4.8-3.2c1-2.1,1.5-5.5,1.5-10.3c0-4.8-0.5-8.2-1.5-10.3c-1-2.1-2.6-3.2-4.8-3.2
		c-2.2,0-3.8,1-4.8,3.1C87.3,153.6,86.8,157,86.8,161.9z"/>
	<path class="st0" d="M133.5,161.9c0,6.2-1,10.7-3,13.7c-2,3-5,4.5-9.1,4.5c-3.9,0-6.9-1.5-9-4.6c-2-3.1-3.1-7.6-3.1-13.6
		c0-6.3,1-10.9,3-13.8c2-3,5-4.5,9.1-4.5c4,0,7,1.6,9,4.7C132.5,151.3,133.5,155.9,133.5,161.9z M115.2,161.9
		c0,4.8,0.5,8.3,1.5,10.4c1,2.1,2.6,3.1,4.8,3.1c2.2,0,3.8-1.1,4.8-3.2c1-2.1,1.5-5.5,1.5-10.3c0-4.8-0.5-8.2-1.5-10.3
		c-1-2.1-2.6-3.2-4.8-3.2c-2.2,0-3.8,1-4.8,3.1C115.7,153.6,115.2,157,115.2,161.9z"/>
</g>
</svg>
