<?xml version="1.0" encoding="utf-8"?>
<!-- Generator: Adobe Illustrator 27.0.1, SVG Export Plug-In . SVG Version: 6.00 Build 0)  -->
<svg version="1.1" id="Layer_1" xmlns="http://www.w3.org/2000/svg" xmlns:xlink="http://www.w3.org/1999/xlink" x="0px" y="0px"
	 viewBox="0 0 615 355.1" style="enable-background:new 0 0 615 355.1;" xml:space="preserve">
<style type="text/css">
	.st0{enable-background:new    ;}
	.st1{fill:#D47AE8;}
	.st2{fill:#FFFFFF;}
</style>
<g class="st0">
	<path class="st1" d="M71.1,150.5h-4.7v7.6h-5.5v-7.6h-16v-4.3l16-23.1h5.5v22.8h4.7V150.5z M60.9,145.8v-8.8c0-3.1,0.1-5.7,0.2-7.7
		h-0.2c-0.4,1.1-1.2,2.3-2.1,3.8l-8.7,12.7H60.9z"/>
	<path class="st1" d="M97.8,140.6c0,6.1-1,10.6-2.9,13.6c-2,3-4.9,4.4-9,4.4c-3.9,0-6.9-1.5-8.9-4.6c-2-3.1-3-7.5-3-13.4
		c0-6.2,1-10.7,2.9-13.7c2-2.9,4.9-4.4,9-4.4c3.9,0,6.9,1.5,8.9,4.6C96.8,130.2,97.8,134.7,97.8,140.6z M79.7,140.6
		c0,4.8,0.5,8.2,1.5,10.2c1,2,2.6,3.1,4.7,3.1c2.2,0,3.7-1,4.7-3.1c1-2.1,1.5-5.5,1.5-10.2c0-4.7-0.5-8.1-1.5-10.2
		c-1-2.1-2.6-3.2-4.7-3.2c-2.2,0-3.7,1-4.7,3.1C80.2,132.5,79.7,135.9,79.7,140.6z"/>
	<path class="st1" d="M127.1,150.5h-4.7v7.6h-5.5v-7.6h-16v-4.3l16-23.1h5.5v22.8h4.7V150.5z M116.9,145.8v-8.8
		c0-3.1,0.1-5.7,0.2-7.7h-0.2c-0.4,1.1-1.2,2.3-2.1,3.8l-8.7,12.7H116.9z"/>
</g>
<g>
	<polygon class="st1" points="348.4,241.2 580.9,241.2 591.6,261.7 580.9,279.7 348.4,279.7 	"/>
</g>
<g class="st0">
	<path d="M166.4,137.7c0,27.6-6.9,49-20.7,64.3c-13.8,15.3-33.3,23-58.6,23c-25.6,0-45.2-7.6-58.9-22.8
		c-13.7-15.2-20.6-36.8-20.6-64.7c0-28,6.9-49.5,20.7-64.5c13.8-15,33.5-22.5,59.1-22.5c25.2,0,44.7,7.6,58.4,22.8
		C159.5,88.6,166.4,110.1,166.4,137.7z M37.1,137.7c0,20.9,4.2,36.7,12.6,47.5c8.4,10.8,20.9,16.2,37.4,16.2
		c16.5,0,28.9-5.3,37.3-16c8.4-10.7,12.6-26.5,12.6-47.6c0-20.8-4.2-36.6-12.5-47.3c-8.3-10.7-20.7-16.1-37.2-16.1
		c-16.6,0-29.2,5.4-37.6,16.1C41.3,101.2,37.1,116.9,37.1,137.7z"/>
	<path d="M301.8,158.4c0,20.9-5.4,37.3-16.1,49C274.9,219.1,260,225,240.8,225c-12,0-22.6-2.7-31.8-8.1
		c-9.2-5.4-16.3-13.2-21.2-23.3c-4.9-10.1-7.4-21.9-7.4-35.2c0-20.8,5.3-37,16-48.7c10.7-11.7,25.7-17.5,45.1-17.5
		c18.5,0,33.2,6,44,17.9C296.4,122,301.8,138.1,301.8,158.4z M208.5,158.4c0,29.6,10.9,44.4,32.8,44.4c21.6,0,32.5-14.8,32.5-44.4
		c0-29.3-10.9-43.9-32.7-43.9c-11.4,0-19.7,3.8-24.9,11.4C211,133.4,208.5,144.2,208.5,158.4z"/>
	<path d="M386.2,225c-16.2,0-28.8-5.8-37.8-17.5h-1.6c1.1,10.8,1.6,17.4,1.6,19.7v52.5h-27.2V94.5h22c0.6,2.4,1.9,8.1,3.8,17.2h1.4
		c8.5-13,21.3-19.5,38.3-19.5c16,0,28.5,5.8,37.4,17.4s13.4,27.9,13.4,48.8c0,20.9-4.5,37.3-13.6,49
		C414.8,219.1,402.2,225,386.2,225z M379.6,114.4c-10.8,0-18.7,3.2-23.7,9.5c-5,6.3-7.5,16.5-7.5,30.4v4.1c0,15.6,2.5,26.9,7.4,33.9
		c4.9,7,13,10.5,24.2,10.5c9.4,0,16.7-3.9,21.8-11.6c5.1-7.7,7.7-18.7,7.7-33c0-14.4-2.5-25.2-7.6-32.6
		C396.9,118.1,389.4,114.4,379.6,114.4z"/>
	<path d="M543.4,186.2c0,12.5-4.6,22.1-13.7,28.8c-9.1,6.7-22.2,10-39.2,10c-17.1,0-30.8-2.6-41.2-7.8v-23.5
		c15.1,7,29.1,10.4,42.1,10.4c16.8,0,25.2-5.1,25.2-15.2c0-3.2-0.9-6-2.8-8.1c-1.9-2.2-4.9-4.4-9.2-6.7c-4.3-2.3-10.2-4.9-17.7-7.9
		c-14.8-5.7-24.7-11.4-30-17.2c-5.2-5.7-7.8-13.1-7.8-22.3c0-11,4.4-19.5,13.3-25.6c8.8-6.1,20.9-9.1,36.1-9.1
		c15.1,0,29.3,3.1,42.8,9.2l-8.8,20.5c-13.8-5.7-25.5-8.6-34.9-8.6c-14.4,0-21.6,4.1-21.6,12.3c0,4,1.9,7.4,5.6,10.2
		c3.7,2.8,11.9,6.6,24.5,11.5c10.6,4.1,18.3,7.8,23.1,11.2c4.8,3.4,8.3,7.3,10.7,11.8C542.2,174.7,543.4,180,543.4,186.2z"/>
	<path d="M556.9,208.2c0-5.7,1.5-10.1,4.5-13c3-3,7.3-4.5,12.9-4.5c5.5,0,9.7,1.5,12.6,4.6c2.9,3.1,4.4,7.4,4.4,12.9
		c0,5.5-1.5,9.8-4.5,13c-3,3.2-7.2,4.8-12.6,4.8c-5.5,0-9.8-1.5-12.8-4.6C558.4,218.3,556.9,213.9,556.9,208.2z M584.5,171.2h-20.2
		l-6-118h32.1L584.5,171.2z"/>
</g>
<g class="st0">
	<path class="st2" d="M382.5,267.5c-1.6,0-2.9-0.6-3.8-1.7h-0.2c0.1,1.1,0.2,1.7,0.2,2v5.2H376v-18.5h2.2c0.1,0.2,0.2,0.8,0.4,1.7
		h0.1c0.8-1.3,2.1-1.9,3.8-1.9c1.6,0,2.8,0.6,3.7,1.7c0.9,1.2,1.3,2.8,1.3,4.9s-0.5,3.7-1.4,4.9
		C385.3,266.9,384.1,267.5,382.5,267.5z M381.8,256.4c-1.1,0-1.9,0.3-2.4,0.9c-0.5,0.6-0.7,1.6-0.7,3v0.4c0,1.6,0.2,2.7,0.7,3.4
		c0.5,0.7,1.3,1,2.4,1c0.9,0,1.7-0.4,2.2-1.2c0.5-0.8,0.8-1.9,0.8-3.3c0-1.4-0.3-2.5-0.8-3.3C383.6,256.8,382.8,256.4,381.8,256.4z"
		/>
	<path class="st2" d="M398.8,267.2l-0.5-1.8h-0.1c-0.6,0.8-1.2,1.3-1.9,1.6c-0.6,0.3-1.4,0.4-2.4,0.4c-1.3,0-2.2-0.3-2.9-1
		s-1.1-1.6-1.1-2.9c0-1.3,0.5-2.3,1.5-3c1-0.7,2.5-1,4.5-1.1l2.2-0.1v-0.7c0-0.8-0.2-1.4-0.6-1.8s-1-0.6-1.8-0.6
		c-0.7,0-1.3,0.1-1.9,0.3c-0.6,0.2-1.2,0.4-1.7,0.7l-0.9-1.9c0.7-0.4,1.5-0.6,2.3-0.8c0.8-0.2,1.6-0.3,2.3-0.3
		c1.6,0,2.9,0.4,3.7,1.1s1.2,1.8,1.2,3.3v8.6H398.8z M394.7,265.4c1,0,1.8-0.3,2.4-0.8s0.9-1.3,0.9-2.3v-1.1l-1.6,0.1
		c-1.3,0-2.2,0.3-2.8,0.6c-0.6,0.4-0.9,1-0.9,1.8c0,0.6,0.2,1,0.5,1.3C393.5,265.2,394.1,265.4,394.7,265.4z"/>
	<path class="st2" d="M415.3,254.4v1.5l-2.2,0.4c0.2,0.3,0.4,0.6,0.5,1c0.1,0.4,0.2,0.8,0.2,1.2c0,1.3-0.5,2.4-1.4,3.1
		s-2.2,1.1-3.8,1.1c-0.4,0-0.8,0-1.1-0.1c-0.6,0.4-0.9,0.8-0.9,1.3c0,0.3,0.1,0.5,0.4,0.7c0.3,0.1,0.8,0.2,1.5,0.2h2.2
		c1.4,0,2.5,0.3,3.2,0.9c0.7,0.6,1.1,1.5,1.1,2.6c0,1.5-0.6,2.6-1.8,3.4c-1.2,0.8-2.9,1.2-5.2,1.2c-1.7,0-3.1-0.3-4-0.9
		s-1.4-1.5-1.4-2.6c0-0.8,0.2-1.4,0.7-2c0.5-0.5,1.2-0.9,2.1-1.1c-0.4-0.2-0.7-0.4-0.9-0.7c-0.2-0.3-0.4-0.7-0.4-1.1
		c0-0.5,0.1-0.9,0.4-1.2c0.3-0.3,0.7-0.7,1.2-1c-0.7-0.3-1.2-0.8-1.6-1.4c-0.4-0.6-0.6-1.4-0.6-2.3c0-1.4,0.4-2.5,1.3-3.2
		c0.9-0.8,2.1-1.1,3.7-1.1c0.4,0,0.7,0,1.1,0.1s0.7,0.1,0.9,0.2H415.3z M405.3,269.2c0,0.6,0.3,1,0.8,1.4c0.5,0.3,1.3,0.5,2.2,0.5
		c1.5,0,2.6-0.2,3.3-0.6c0.7-0.4,1.1-1,1.1-1.7c0-0.6-0.2-1-0.6-1.2s-1.1-0.4-2.2-0.4h-2.1c-0.8,0-1.4,0.2-1.9,0.5
		C405.5,268.1,405.3,268.6,405.3,269.2z M406.4,258.6c0,0.8,0.2,1.4,0.6,1.9c0.4,0.4,1,0.6,1.8,0.6c1.6,0,2.4-0.8,2.4-2.5
		c0-0.8-0.2-1.5-0.6-1.9c-0.4-0.5-1-0.7-1.8-0.7c-0.8,0-1.4,0.2-1.8,0.7C406.6,257.1,406.4,257.7,406.4,258.6z"/>
	<path class="st2" d="M423.3,267.5c-2,0-3.5-0.6-4.7-1.7c-1.1-1.2-1.7-2.8-1.7-4.8c0-2.1,0.5-3.7,1.6-4.9c1-1.2,2.5-1.8,4.3-1.8
		c1.7,0,3,0.5,4,1.5c1,1,1.5,2.4,1.5,4.2v1.5h-8.5c0,1.2,0.4,2.2,1,2.9c0.6,0.7,1.5,1,2.7,1c0.8,0,1.5-0.1,2.1-0.2
		c0.7-0.1,1.4-0.4,2.1-0.7v2.2c-0.7,0.3-1.3,0.5-2,0.7C424.9,267.4,424.2,267.5,423.3,267.5z M422.8,256.3c-0.9,0-1.6,0.3-2.1,0.8
		s-0.8,1.3-0.9,2.4h5.8c0-1.1-0.3-1.9-0.8-2.4C424.3,256.5,423.7,256.3,422.8,256.3z"/>
	<path class="st2" d="M448.8,267.2H446v-7.9c0-1-0.2-1.7-0.6-2.2c-0.4-0.5-1-0.7-1.9-0.7c-1.1,0-2,0.3-2.5,1
		c-0.5,0.7-0.8,1.8-0.8,3.4v6.4h-2.7v-12.8h2.1l0.4,1.7h0.1c0.4-0.6,0.9-1.1,1.6-1.4c0.7-0.3,1.5-0.5,2.4-0.5c3.1,0,4.6,1.6,4.6,4.7
		V267.2z"/>
	<path class="st2" d="M463.9,260.8c0,2.1-0.5,3.7-1.6,4.9s-2.6,1.8-4.5,1.8c-1.2,0-2.3-0.3-3.2-0.8s-1.6-1.3-2.1-2.3
		c-0.5-1-0.7-2.2-0.7-3.5c0-2.1,0.5-3.7,1.6-4.9c1.1-1.2,2.6-1.7,4.5-1.7c1.9,0,3.3,0.6,4.4,1.8
		C463.4,257.2,463.9,258.8,463.9,260.8z M454.6,260.8c0,3,1.1,4.4,3.3,4.4c2.2,0,3.2-1.5,3.2-4.4c0-2.9-1.1-4.4-3.3-4.4
		c-1.1,0-2,0.4-2.5,1.1C454.8,258.3,454.6,259.4,454.6,260.8z"/>
	<path class="st2" d="M471.8,265.3c0.7,0,1.3-0.1,2-0.3v2c-0.3,0.1-0.7,0.2-1.2,0.3c-0.5,0.1-1,0.1-1.5,0.1c-2.6,0-3.9-1.4-3.9-4.1
		v-6.9h-1.7v-1.2l1.9-1l0.9-2.7h1.7v2.8h3.6v2.1H470v6.9c0,0.7,0.2,1.1,0.5,1.5C470.8,265.1,471.3,265.3,471.8,265.3z"/>
	<path class="st2" d="M488.9,256.5h-3.1v10.7h-2.7v-10.7H481v-1.3l2.1-0.8v-0.8c0-1.5,0.4-2.6,1.1-3.4c0.7-0.7,1.8-1.1,3.3-1.1
		c1,0,1.9,0.2,2.8,0.5l-0.7,2.1c-0.7-0.2-1.3-0.3-1.9-0.3c-0.6,0-1.1,0.2-1.3,0.6c-0.3,0.4-0.4,1-0.4,1.7v0.8h3.1V256.5z"/>
	<path class="st2" d="M502.5,260.8c0,2.1-0.5,3.7-1.6,4.9s-2.6,1.8-4.5,1.8c-1.2,0-2.3-0.3-3.2-0.8s-1.6-1.3-2.1-2.3
		c-0.5-1-0.7-2.2-0.7-3.5c0-2.1,0.5-3.7,1.6-4.9c1.1-1.2,2.6-1.7,4.5-1.7c1.9,0,3.3,0.6,4.4,1.8
		C501.9,257.2,502.5,258.8,502.5,260.8z M493.1,260.8c0,3,1.1,4.4,3.3,4.4c2.2,0,3.2-1.5,3.2-4.4c0-2.9-1.1-4.4-3.3-4.4
		c-1.1,0-2,0.4-2.5,1.1C493.4,258.3,493.1,259.4,493.1,260.8z"/>
	<path class="st2" d="M514.6,267.2l-0.4-1.7h-0.1c-0.4,0.6-0.9,1.1-1.6,1.4c-0.7,0.3-1.5,0.5-2.4,0.5c-1.6,0-2.7-0.4-3.5-1.2
		s-1.1-1.9-1.1-3.5v-8.4h2.7v7.9c0,1,0.2,1.7,0.6,2.2s1,0.7,1.9,0.7c1.1,0,2-0.3,2.5-1s0.8-1.8,0.8-3.4v-6.4h2.7v12.8H514.6z"/>
	<path class="st2" d="M531.9,267.2h-2.7v-7.9c0-1-0.2-1.7-0.6-2.2c-0.4-0.5-1-0.7-1.9-0.7c-1.1,0-2,0.3-2.5,1
		c-0.5,0.7-0.8,1.8-0.8,3.4v6.4h-2.7v-12.8h2.1l0.4,1.7h0.1c0.4-0.6,0.9-1.1,1.6-1.4c0.7-0.3,1.5-0.5,2.4-0.5c3.1,0,4.6,1.6,4.6,4.7
		V267.2z"/>
	<path class="st2" d="M540,267.5c-1.6,0-2.8-0.6-3.7-1.7c-0.9-1.2-1.3-2.8-1.3-4.9c0-2.1,0.5-3.7,1.4-4.9c0.9-1.2,2.2-1.8,3.8-1.8
		c1.7,0,3,0.6,3.8,1.9h0.1c-0.1-0.9-0.2-1.6-0.2-2.2v-4.7h2.7v18h-2.1l-0.5-1.7h-0.1C542.9,266.8,541.7,267.5,540,267.5z
		 M540.7,265.3c1.1,0,1.9-0.3,2.4-0.9s0.8-1.6,0.8-3.1v-0.4c0-1.6-0.3-2.8-0.8-3.4s-1.3-1-2.5-1c-1,0-1.7,0.4-2.2,1.2
		c-0.5,0.8-0.8,1.9-0.8,3.3c0,1.4,0.2,2.5,0.8,3.2C539,264.9,539.7,265.3,540.7,265.3z"/>
</g>
</svg>
